<svg xmlns="http://www.w3.org/2000/svg" xmlns:xlink="http://www.w3.org/1999/xlink" width="500" zoomAndPan="magnify" viewBox="0 0 375 374.999991" height="500" preserveAspectRatio="xMidYMid meet" version="1.0"><defs><g/><clipPath id="f61035784d"><path d="M 89.914062 210.816406 L 182.804688 210.816406 L 182.804688 221.148438 L 89.914062 221.148438 Z M 89.914062 210.816406 " clip-rule="nonzero"/></clipPath><clipPath id="cf62dc5449"><path d="M 194.894531 149.730469 L 363.105469 149.730469 L 363.105469 162.4375 L 194.894531 162.4375 Z M 194.894531 149.730469 " clip-rule="nonzero"/></clipPath><clipPath id="f6738043b0"><path d="M 26.6875 210.980469 L 194.894531 210.980469 L 194.894531 223.6875 L 26.6875 223.6875 Z M 26.6875 210.980469 " clip-rule="nonzero"/></clipPath></defs><g clip-path="url(#f61035784d)"><path fill="#000000" d="M 89.914062 210.816406 L 182.800781 210.816406 L 182.800781 221.148438 L 89.914062 221.148438 Z M 89.914062 210.816406 " fill-opacity="1" fill-rule="nonzero"/></g><g clip-path="url(#cf62dc5449)"><path fill="#000000" d="M 194.894531 149.730469 L 363.082031 149.730469 L 363.082031 162.4375 L 194.894531 162.4375 Z M 194.894531 149.730469 " fill-opacity="1" fill-rule="nonzero"/></g><g fill="#000000" fill-opacity="1"><g transform="translate(44.428406, 187.021377)"><g><path d="M 4.628906 0 L 63.484375 0 L 63.484375 -15.871094 L 27.445312 -15.871094 L 62.605469 -64.476562 L 62.605469 -77.152344 L 5.839844 -77.152344 L 5.839844 -61.28125 L 39.898438 -61.28125 L 4.628906 -12.675781 Z M 4.628906 0 "/></g></g></g><g fill="#000000" fill-opacity="1"><g transform="translate(135.356901, 187.021377)"><g><path d="M 9.257812 0 L 26.78125 0 L 26.78125 -77.152344 L 9.257812 -77.152344 Z M 9.257812 0 "/></g></g></g><g fill="#000000" fill-opacity="1"><g transform="translate(197.360032, 254.594923)"><g><path d="M 8.144531 0 L 40.035156 0 C 53.800781 0 63.109375 -7.5625 63.109375 -19 C 63.109375 -26.269531 59.328125 -32.085938 52.929688 -34.898438 C 58.066406 -37.902344 61.070312 -43.234375 61.070312 -49.632812 C 61.070312 -60.78125 52.25 -67.859375 38.484375 -67.859375 L 8.144531 -67.859375 Z M 23.363281 -12.214844 L 23.363281 -28.5 L 37.710938 -28.5 C 43.816406 -28.5 47.304688 -25.496094 47.304688 -20.355469 C 47.304688 -15.21875 43.816406 -12.214844 37.710938 -12.214844 Z M 23.363281 -40.230469 L 23.363281 -55.644531 L 36.160156 -55.644531 C 42.070312 -55.644531 45.367188 -52.929688 45.367188 -47.984375 C 45.367188 -43.042969 42.070312 -40.230469 36.160156 -40.230469 Z M 23.363281 -40.230469 "/></g></g></g><g fill="#000000" fill-opacity="1"><g transform="translate(284.216381, 254.594923)"><g><path d="M 40.328125 1.355469 C 61.554688 1.355469 76.582031 -13.183594 76.582031 -33.929688 C 76.582031 -54.671875 61.554688 -69.214844 40.328125 -69.214844 C 19.097656 -69.214844 4.167969 -54.671875 4.167969 -33.929688 C 4.167969 -13.183594 19.097656 1.355469 40.328125 1.355469 Z M 19.871094 -33.929688 C 19.871094 -46.144531 28.304688 -54.578125 40.328125 -54.578125 C 52.445312 -54.578125 60.78125 -46.144531 60.78125 -33.929688 C 60.78125 -21.714844 52.445312 -13.28125 40.328125 -13.28125 C 28.304688 -13.28125 19.871094 -21.714844 19.871094 -33.929688 Z M 19.871094 -33.929688 "/></g></g></g><g clip-path="url(#f6738043b0)"><path fill="#000000" d="M 26.6875 210.980469 L 194.871094 210.980469 L 194.871094 223.6875 L 26.6875 223.6875 Z M 26.6875 210.980469 " fill-opacity="1" fill-rule="nonzero"/></g></svg>